inDegrees=no
num_controls=7
num_derivatives=13
num_iterations=47
num_multipliers=7
num_parameters=0
num_slacks=7
num_states=26
objective=0.472036
objective_accelerations=0.056807
objective_balance=0.000639
objective_effort=0.015564
objective_height=0.390082
objective_ligament=0.008943
solver_duration=754.569308
status=Solve_Succeeded
success=true
DataType=double
version=3
OpenSimVersion=4.5
endheader
time	/jointset/ground_pelvis/pelvis_tilt/value	/jointset/ground_pelvis/pelvis_tx/value	/jointset/ground_pelvis/pelvis_ty/value	/jointset/hip_l/hip_flexion_l/value	/jointset/hip_l/hip_adduction_l/value	/jointset/hip_l/hip_rotation_l/value	/jointset/back/lumbar_extension/value	/jointset/patellofemoral_l/patellar_flexion_l/value	/jointset/knee_l/knee_flexion_l/value	/jointset/knee_l/knee_adduction_l/value	/jointset/knee_l/knee_rotation_l/value	/jointset/ankle_l/ankle_angle_l/value	/jointset/subtalar_l/subtalar_angle_l/value	/jointset/ground_pelvis/pelvis_tilt/speed	/jointset/ground_pelvis/pelvis_tx/speed	/jointset/ground_pelvis/pelvis_ty/speed	/jointset/hip_l/hip_flexion_l/speed	/jointset/hip_l/hip_adduction_l/speed	/jointset/hip_l/hip_rotation_l/speed	/jointset/back/lumbar_extension/speed	/jointset/patellofemoral_l/patellar_flexion_l/speed	/jointset/knee_l/knee_flexion_l/speed	/jointset/knee_l/knee_adduction_l/speed	/jointset/knee_l/knee_rotation_l/speed	/jointset/ankle_l/ankle_angle_l/speed	/jointset/subtalar_l/subtalar_angle_l/speed	/forceset/tau_hip_flexion_l	/forceset/tau_hip_adduction_l	/forceset/tau_hip_rotation_l	/forceset/tau_knee_flexion_l	/forceset/tau_ankle_angle_l	/forceset/tau_subtalar_angle_l	/forceset/tau_lumbar_extension	lambda_cid13_p0	lambda_cid13_p1	lambda_cid13_p2	lambda_cid13_p3	lambda_cid13_p4	lambda_cid13_p5	lambda_cid14_p0	/jointset/ground_pelvis/pelvis_tilt/accel	/jointset/ground_pelvis/pelvis_tx/accel	/jointset/ground_pelvis/pelvis_ty/accel	/jointset/hip_l/hip_flexion_l/accel	/jointset/hip_l/hip_adduction_l/accel	/jointset/hip_l/hip_rotation_l/accel	/jointset/back/lumbar_extension/accel	/jointset/patellofemoral_l/patellar_flexion_l/accel	/jointset/knee_l/knee_flexion_l/accel	/jointset/knee_l/knee_adduction_l/accel	/jointset/knee_l/knee_rotation_l/accel	/jointset/ankle_l/ankle_angle_l/accel	/jointset/subtalar_l/subtalar_angle_l/accel	gamma_cid13_p0	gamma_cid13_p1	gamma_cid13_p2	gamma_cid13_p3	gamma_cid13_p4	gamma_cid13_p5	gamma_cid14_p0
0.5	-0.1592821485832269	0.04175490935844956	0.7912014808076028	0.8742380046139256	-0.3612192737894515	-0.02878783354215975	-0.3956856794259121	0.9009151093660837	0.9009151093660639	-0.02873736576754557	-0.1744205658960044	0.3107972642537264	0.1656828415005324	-0.6190761270581219	-0.1423242713436358	-0.4476230519458978	2.075831022072115	0.005498287055484778	0.5085754175962667	-0.3183627044704988	1.84034085353666	1.84034085353661	0.2468614071959839	-0.003544105118822352	0.5314705506780018	0.2306333948433787	-0.08112867760935416	0.07193228227258294	-0.001956262649942226	-0.2077922783683372	0.0201044351723418	-0.01540996206494545	0.1030746056309969	-20.96702040907154	14.84833415433499	-7.770748935986284	0.3044151995167935	-443.7933033037765	-31.35518965100946	-6.89070719934511	0.136544198669124	0.3115241583359885	-0.3792823470448687	-0.9930442062416728	0.1797896884427766	-0.5932354167872785	1.296093958725089	-1.509778699677141	-1.509778699677109	-0.1605334298791863	0.1230311643381598	-0.7687283689933628	0.1779145319572581	-3.637127450895274e-07	-9.676754313437433e-07	4.25225975849907e-06	1.018524885646604e-07	-8.472433611346146e-07	-1.586520890025112e-06	-5.861053142430994e-07
0.51	-0.1654644373658316	0.04034749926668482	0.7867073724785444	0.8949423975997031	-0.3611574820579949	-0.0237285564228383	-0.3988051687295582	0.9192397882052209	0.919239788205216	-0.02628364470530907	-0.1744505419232104	0.3160720905479445	0.167994386198835	-0.617299320993609	-0.1391382004520765	-0.4510983111111157	2.064765744877618	0.00684929516568277	0.5032137874145	-0.3055119870409471	1.824341095493954	1.824341095493938	0.2438707454689179	-0.002485221876186605	0.5234244713465976	0.231625267952994	-0.0849889030185612	0.07321240274138666	-0.002385835379839333	-0.210080435764486	0.01884248381854778	-0.01478748304227282	0.106091999282663	-21.52261161713123	14.8674241214746	-7.993277964411287	0.3941028058268152	-446.4784622431762	-31.29792775366003	-6.201114485466159	0.2105620053786233	0.3251051716579288	-0.3167690356057145	-1.205592442463947	0.1105425156085641	-0.5181254777360967	1.283036017640876	-1.683031747310802	-1.683031747305611	-0.3701753605260138	0.09297029184056337	-0.8331334911340489	0.05190199375283625	-3.569839954226869e-07	-6.920137116697297e-07	4.256650279242185e-06	1.375547512316473e-07	-8.19407742079753e-07	-1.342638089631892e-06	-5.697256352546498e-07
0.52	-0.171626495448783	0.03897254120725444	0.7821814872909644	0.9155276732202556	-0.3610826230167827	-0.0187249953371015	-0.4017954557823939	0.9373968779857748	0.9373968779857996	-0.02386019882358722	-0.1744707984404958	0.3212643388936644	0.1703142652868912	-0.6150299871276528	-0.1358338648767638	-0.4539784236502054	2.052007549026718	0.00811174900789258	0.4974322108781308	-0.2925222543085821	1.806823041821512	1.806823041821531	0.2408063710856188	-0.001600203128988041	0.5149549609783909	0.232300272794174	-0.08884912842775039	0.07449252321019774	-0.002815408109464041	-0.2123685931606332	0.01758053246475021	-0.01416500401959446	0.1091093929343453	-22.0746967436897	14.8776819128338	-8.205009508292104	0.4500002667356306	-449.1104961602138	-31.33149595721624	-5.55374128189461	0.2350497589576958	0.3351770950867551	-0.260253021819211	-1.33162793752218	0.1620788348452025	-0.6772246877076685	1.323897019287744	-1.81343782562413	-1.813437825624116	-0.1752759611258307	0.08825826525088408	-0.8534145763537725	0.1145408782703038	-3.488054814623423e-07	-4.617592754946523e-07	4.240595145467225e-06	1.666252816115953e-07	-7.904549412727376e-07	-1.116428520949864e-06	-5.547377049578686e-07
0.53	-0.1777634785468285	0.0376311728604711	0.7776298013466265	0.9359771409313618	-0.3609954760056907	-0.01378038172623666	-0.4046550772516171	0.9553714351289661	0.9553714351289511	-0.02146825237966932	-0.1744824881637364	0.3263699047828525	0.172639408832375	-0.6122834375192968	-0.1324242062094274	-0.4562548071225477	2.03760823851542	0.009305156670924889	0.4914688576566539	-0.2793806195621944	1.78784651109354	1.787846511093514	0.2375374748843975	-0.0007474715461572798	0.5060947073552227	0.2326737810403385	-0.09279586672568228	0.07566721621523684	-0.003156609888318286	-0.214680253119655	0.0161654633033741	-0.01368126963865894	0.1121678527532074	-22.70124451612838	14.96542420166203	-8.433882037665004	0.6059580623131675	-451.8953358131663	-31.26117297324005	-4.94856293534758	0.306906942476199	0.3462363723162812	-0.1958923451760393	-1.535790941272335	0.09546956331138377	-0.5596629755758535	1.312509698306881	-1.97593268178845	-1.975932681795064	-0.4095047700122412	0.08310421712441113	-0.911889759114582	-0.009892378512533792	-3.372791109423389e-07	-2.424211991551019e-07	4.18940921558402e-06	1.918772544529831e-07	-7.540321310374294e-07	-8.816128211171802e-07	-5.371778384698666e-07
0.54	-0.1838705062726481	0.03632437632431332	0.773058439300518	0.9562742738706898	-0.3608968953517155	-0.008896156114826432	-0.4073826397741773	0.9731489925677906	0.9731489925677471	-0.01911035656180502	-0.1744857858487893	0.3313849563350466	0.1749665578250597	-0.6090389126828804	-0.1289195027516538	-0.4579136440043181	2.021540594670573	0.01039847758512351	0.4853546109868361	-0.2661104649761157	1.767423100949383	1.767423100949313	0.2339962458674931	7.820452967197117e-05	0.4968520935794067	0.2327013622344168	-0.09674260502360391	0.07684190922027315	-0.003497811666857938	-0.2169919130786767	0.01475039414199018	-0.01319753525773994	0.1152263125720805	-23.32502221258179	15.04480496754407	-8.652422698000722	0.7301141810469955	-454.63620047227	-31.27903512584921	-4.385183250671718	0.3346448045697316	0.3541860531742805	-0.1367437037048209	-1.665294604231962	0.1420614850784841	-0.7074033773758476	1.349600987225949	-2.102813708860801	-2.102813708860886	-0.2297425242624676	0.0828471638506247	-0.9298866068831959	0.04535546785313804	-3.220487289095215e-07	-3.51607975271988e-08	4.099355170857649e-06	2.129044402304321e-07	-7.093446295197543e-07	-6.372754442667508e-07	-5.167724255575352e-07
0.55	-0.1899427796966097	0.03505306778646174	0.7684735863224272	0.9764027165525315	-0.3607876670676161	-0.004074262158239893	-0.40997686137652	0.9907153137923461	0.9907153137922441	-0.01678853744078481	-0.1744811641640239	0.3363058402853472	0.1772925528251417	-0.6053378858642192	-0.1253291495097108	-0.4589501737753471	2.003877445034497	0.01143559048996723	0.4789238989964331	-0.2527261845392705	1.745607532975722	1.745607532975715	0.2303873113615152	0.0007880786376826762	0.4872699659819641	0.2324457389619056	-0.1005649760545852	0.0777763933455055	-0.003748075226056724	-0.2195929570898875	0.01357681730602118	-0.01281144403188449	0.1181705187049723	-23.88871456940035	15.16997159362587	-8.894142091925429	0.8431272953447392	-457.4708701288283	-31.28323268524009	-3.862849688006951	0.3994887449457128	0.3634631310877551	-0.07122793196053238	-1.85743984194257	0.08217419396813672	-0.6264180207897211	1.333992214802723	-2.255868860979185	-2.255868860969469	-0.4234699344218156	0.05711720340544735	-0.9806007210485823	-0.06930059510549946	-3.056264175331242e-07	1.498743386282722e-07	3.988283045539214e-06	2.298988276641189e-07	-6.644066367366676e-07	-4.126478971524933e-07	-4.947036821668573e-07
0.5600000000000001	-0.1959757114274967	0.03381806341530658	0.7638815439829942	0.9963464047982863	-0.3606685400543158	0.0006802220962655238	-0.4124370100459157	1.008056491233289	1.008056491233134	-0.01450220786894714	-0.1744710318043988	0.3411292579826967	0.1796143357184378	-0.6011705740683103	-0.121658669412369	-0.4593515162727735	1.984589707452534	0.01237822342603695	0.4718726705693306	-0.2392958783868812	1.722394344227648	1.722394344227706	0.2268983360292816	0.001180339510846213	0.4773588429895719	0.2318589408773001	-0.1043873470855454	0.0787108774707667	-0.003998338785148244	-0.2221940011010936	0.01240324047005599	-0.01242535280598742	0.1211147248378811	-24.45058748630433	15.28741822105254	-9.126174180886798	0.9260695105993064	-460.2767434202002	-31.37119209655351	-3.38061594765334	0.4279018000192074	0.3702114242541234	-0.009706248984331672	-1.990212193409371	0.1231654913235921	-0.8315066647158748	1.358806130334795	-2.382337863743223	-2.382337863743276	-0.205750689513669	0.01932451688096196	-0.9956856858729867	-0.02087949456578042	-2.877737909444311e-07	3.082391562168256e-07	3.851989223510305e-06	2.420538570852913e-07	-6.191680544350871e-07	-2.116721457216413e-07	-4.706389422021635e-07
0.5700000000000001	-0.2019647746711806	0.03262010399122105	0.7592886482165985	1.016089438593558	-0.3605403116369739	0.005361823500476782	-0.4147626369417322	1.025158835466395	1.025158835466228	-0.01225042821846681	-0.1744580501914235	0.3458520484102234	0.1819287733216812	-0.5965657808128495	-0.1179253870485589	-0.459120682028508	1.963757893853513	0.01325046008729311	0.4644072705131363	-0.2258357313593757	1.697856688855888	1.697856688855941	0.22342635560028	0.001386970428510607	0.467149283242774	0.2309663216762283	-0.1081613197512611	0.07950904955569549	-0.004145283267569955	-0.2248444208317182	0.01119447968923858	-0.01214635754225209	0.1239809064903569	-25.03888634017334	15.46188383108402	-9.37401539190631	1.084969693238834	-463.0905019332534	-31.38641769010126	-2.937303498072699	0.488190435170506	0.3761106820329504	0.05540279209168901	-2.168574547856747	0.06610308503466394	-0.7105187661997356	1.338684401435457	-2.522059999064892	-2.52205999906559	-0.4225475103389078	0.0177120521686547	-1.04108617744883	-0.1333043329256522	-2.470600146203609e-07	2.33679775319972e-07	3.351792393100611e-06	2.030323941011975e-07	-5.313809019907849e-07	-1.498401899015587e-07	-4.156160637202044e-07
0.58	-0.2079055055129348	0.0314597221986916	0.7547012456988371	1.035616372531901	-0.3604039907867193	0.009967478486104313	-0.4169538492847774	1.042009287020741	1.042009287020574	-0.01003429353040469	-0.1744437263346913	0.3504712442286076	0.1842323144929043	-0.5915040936829571	-0.114143143101152	-0.4582528665459015	1.941369736066164	0.01399671000886457	0.4566833868517897	-0.2124129678328019	1.67201580847723	1.672015808477278	0.2197693435414569	0.00144878826454406	0.4566399211613527	0.2296796544732415	-0.1119352924169541	0.08030722164064832	-0.004292227749675843	-0.2274948405623338	0.009985718908422335	-0.01186736227848769	0.1268470881428519	-25.6264601861051	15.62934425059535	-9.61288125590446	1.216906894274218	-465.8918901723044	-31.48056173875624	-2.53160827748725	0.519280574905454	0.3800037409735609	0.1176899986838693	-2.30148103107493	0.09796814338654816	-0.8832033857464925	1.35132943014844	-2.642982865122767	-2.642982865122851	-0.2427570154779976	-0.009638099445501595	-1.05564615279757	-0.09968909494890123	-1.765735781758013e-07	-1.442227477904211e-07	2.37767536572992e-06	9.736247589164421e-08	-3.881816581978252e-07	-2.692187585978198e-07	-3.202756094948324e-07
0.59	-0.2137935249788315	0.03033736209948445	0.7501256892349591	1.054912009672201	-0.3602603903685985	0.01449252900848233	-0.4190109999482191	1.058595044527392	1.05859504452733	-0.007853177489006661	-0.1744301398613958	0.3549840760583113	0.1865217374357713	-0.5860267987704498	-0.1103239650716843	-0.4567513204405345	1.917505505043798	0.0146951784184344	0.4483876017893682	-0.1990381902755973	1.644929919010285	1.644929919010295	0.216324597795451	0.001282990268492521	0.4458805870967189	0.2281232170021092	-0.1155846648485022	0.08095053355599247	-0.004343316173723136	-0.2302859098709219	0.008914126737500442	-0.01167783565569638	0.1295870087243552	-26.18120379275284	15.84004098254679	-9.870210373078466	1.363645197791729	-468.6771819816153	-31.53664426548051	-2.162144480760439	0.5728900931164627	0.3836186754428326	0.1823919273946817	-2.466741786025438	0.05130584244178743	-0.793876547611668	1.327398105424216	-2.772205179850272	-2.772205179855953	-0.4147783651532895	-0.01754718165095379	-1.092981367241279	-0.1960363573271543	-1.108851794398731e-07	-5.458733610018043e-07	1.440663813866727e-06	-9.899890113952766e-09	-2.540691665377298e-07	-4.37996105760565e-07	-2.299848413336105e-07
